<svg xmlns="http://www.w3.org/2000/svg" width="425" height="425"><rect x="0" y="0" width="100%" height="100%" fill="rgb(134, 195, 65)"  /><rect x="0" y="17" width="100%" height="10" opacity="0.06333333333333334" fill="#222"  /><rect x="0" y="36" width="100%" height="14" opacity="0.098" fill="#222"  /><rect x="0" y="67" width="100%" height="9" opacity="0.05466666666666667" fill="#ddd"  /><rect x="0" y="86" width="100%" height="12" opacity="0.08066666666666666" fill="#222"  /><rect x="0" y="115" width="100%" height="16" opacity="0.11533333333333334" fill="#222"  /><rect x="0" y="138" width="100%" height="5" opacity="0.02" fill="#ddd"  /><rect x="0" y="148" width="100%" height="6" opacity="0.028666666666666667" fill="#222"  /><rect x="0" y="171" width="100%" height="6" opacity="0.028666666666666667" fill="#222"  /><rect x="0" y="195" width="100%" height="6" opacity="0.028666666666666667" fill="#222"  /><rect x="0" y="208" width="100%" height="16" opacity="0.11533333333333334" fill="#222"  /><rect x="0" y="236" width="100%" height="20" opacity="0.15" fill="#222"  /><rect x="0" y="265" width="100%" height="13" opacity="0.08933333333333333" fill="#ddd"  /><rect x="0" y="290" width="100%" height="14" opacity="0.098" fill="#222"  /><rect x="0" y="311" width="100%" height="12" opacity="0.08066666666666666" fill="#222"  /><rect x="0" y="329" width="100%" height="17" opacity="0.12400000000000001" fill="#ddd"  /><rect x="0" y="353" width="100%" height="13" opacity="0.08933333333333333" fill="#ddd"  /><rect x="0" y="379" width="100%" height="20" opacity="0.15" fill="#222"  /><rect x="0" y="407" width="100%" height="18" opacity="0.13266666666666665" fill="#222"  /><rect x="17" y="0" width="10" height="100%" opacity="0.06333333333333334" fill="#222"  /><rect x="36" y="0" width="14" height="100%" opacity="0.098" fill="#222"  /><rect x="67" y="0" width="9" height="100%" opacity="0.05466666666666667" fill="#ddd"  /><rect x="86" y="0" width="12" height="100%" opacity="0.08066666666666666" fill="#222"  /><rect x="115" y="0" width="16" height="100%" opacity="0.11533333333333334" fill="#222"  /><rect x="138" y="0" width="5" height="100%" opacity="0.02" fill="#ddd"  /><rect x="148" y="0" width="6" height="100%" opacity="0.028666666666666667" fill="#222"  /><rect x="171" y="0" width="6" height="100%" opacity="0.028666666666666667" fill="#222"  /><rect x="195" y="0" width="6" height="100%" opacity="0.028666666666666667" fill="#222"  /><rect x="208" y="0" width="16" height="100%" opacity="0.11533333333333334" fill="#222"  /><rect x="236" y="0" width="20" height="100%" opacity="0.15" fill="#222"  /><rect x="265" y="0" width="13" height="100%" opacity="0.08933333333333333" fill="#ddd"  /><rect x="290" y="0" width="14" height="100%" opacity="0.098" fill="#222"  /><rect x="311" y="0" width="12" height="100%" opacity="0.08066666666666666" fill="#222"  /><rect x="329" y="0" width="17" height="100%" opacity="0.12400000000000001" fill="#ddd"  /><rect x="353" y="0" width="13" height="100%" opacity="0.08933333333333333" fill="#ddd"  /><rect x="379" y="0" width="20" height="100%" opacity="0.15" fill="#222"  /><rect x="407" y="0" width="18" height="100%" opacity="0.13266666666666665" fill="#222"  /></svg>